<svg width="45" height="46" viewBox="0 0 45 46" fill="none" xmlns="http://www.w3.org/2000/svg">
<path d="M29.2854 1.97559C28.6877 2.19531 28.0813 2.71387 27.7473 3.30274C27.5364 3.66309 27.4748 3.90918 27.4397 4.40137L27.4045 5.02539L28.468 6.43164L29.5227 7.83789L29.5315 8.93653V10.0352L27.8528 12.7598C26.9299 14.2627 26.1565 15.5459 26.1301 15.6162C26.0862 15.8096 27.2551 16.5215 27.387 16.3809C27.4397 16.3193 28.2043 15.0977 29.092 13.6563L30.6916 11.0459H33.7502H36.8088L39.2258 14.9746C40.5618 17.1455 41.7307 19.1318 41.845 19.3955C42.1174 20.0723 42.1789 21.5313 41.968 22.2607C41.511 23.8516 40.3069 25.0732 38.6721 25.6006C38.2502 25.7324 37.7053 25.7588 34.2161 25.7939L30.2346 25.8291V26.5234V27.2266L34.4797 27.2002L38.7161 27.1738L39.4192 26.9277C41.2297 26.2861 42.592 24.9502 43.2512 23.1748C43.4973 22.5332 43.5412 22.2783 43.5764 21.3555C43.6203 20.0898 43.4797 19.2988 43.0315 18.376C42.8645 18.042 41.6604 16.0293 40.3508 13.9023L37.969 10.0352V8.93653L37.9778 7.83789L39.0237 6.44043C40.0608 5.06055 40.0784 5.03418 40.0784 4.57715C40.0784 3.56641 39.4368 2.56446 38.5139 2.10742C38.0745 1.8877 37.9162 1.86133 37.2043 1.86133H36.3957L35.0774 2.52051L33.759 3.1709L32.4143 2.52051C31.1575 1.89649 31.0432 1.86133 30.4192 1.83496C29.9446 1.81738 29.6194 1.86133 29.2854 1.97559ZM32.0715 4.01465C32.8713 4.41016 33.6096 4.71778 33.7502 4.71778C33.8909 4.71778 34.6291 4.41016 35.4289 4.01465C37.2131 3.12696 37.5823 3.10059 38.259 3.82129C38.6809 4.26074 38.6282 4.43653 37.7053 5.68457L36.8703 6.81836H33.7502H30.6301L29.7952 5.68457C29.1975 4.87598 28.969 4.48926 28.9778 4.33106C29.0129 3.83008 29.6721 3.32031 30.2873 3.31153C30.5686 3.31153 30.9817 3.46973 32.0715 4.01465ZM36.5627 8.93653V9.63965H33.7502H30.9377V8.93653V8.2334H33.7502H36.5627V8.93653Z" fill="#FF9F43"/>
<path d="M21.2508 3.30664L21.0222 4.00098L22.0242 4.33496C22.5779 4.51074 23.0261 4.68652 23.0261 4.71289C23.0261 4.73926 22.8064 4.87109 22.534 5.01172C19.9236 6.37402 17.6033 8.79102 16.2586 11.5244C15.5203 13.0273 15.5203 12.9043 16.2761 13.1855C16.6277 13.3086 16.9441 13.4141 16.9793 13.4141C17.0056 13.4141 17.2517 12.957 17.5154 12.4033C18.2273 10.9355 18.948 9.9248 20.1697 8.71191C21.2683 7.60449 22.3054 6.83105 23.4568 6.25098C23.9842 5.9873 24.0896 5.96094 24.0457 6.09277C23.9226 6.3916 23.2898 8.36035 23.2898 8.42188C23.2898 8.44824 23.5535 8.5625 23.8875 8.67676C24.2127 8.78223 24.5203 8.8877 24.573 8.90527C24.7049 8.95801 26.0144 5.05566 26.0144 4.61621C26.0144 4.40527 25.9529 4.24707 25.8211 4.12402C25.6629 3.9834 21.7693 2.60352 21.532 2.60352C21.5056 2.60352 21.3738 2.91992 21.2508 3.30664Z" fill="#FF9F43"/>
<path d="M15.1611 14.4921C15.1171 14.6151 14.8623 15.8808 14.8886 15.8895C14.9677 15.9159 16.3125 16.1181 16.33 16.1005C16.3652 16.0653 16.6113 14.9052 16.6113 14.7821C16.6113 14.7294 16.3476 14.6239 16.0224 14.536C15.3105 14.3602 15.2138 14.3515 15.1611 14.4921Z" fill="#FF9F43"/>
<path d="M33.0469 14.9492C33.0469 15.2744 33.0205 15.3447 32.8535 15.3887C32.5283 15.4678 32.0186 15.9424 31.8252 16.3467C31.7021 16.6104 31.6406 16.9004 31.6406 17.2695C31.6406 18.2715 31.9658 18.7021 33.1611 19.3174C34.2246 19.8535 34.3652 19.9678 34.3652 20.2666C34.3652 20.5654 34.2773 20.6885 33.9961 20.7939C33.6445 20.9258 33.2578 20.7676 33.1436 20.4424C33.0557 20.1875 33.0557 20.1875 32.3525 20.1875H31.6406V20.5127C31.6406 21.1455 32.2822 22.0332 32.8535 22.1738C33.0205 22.2178 33.0469 22.2881 33.0469 22.6133V23H33.75H34.4531V22.6133C34.4531 22.2881 34.4795 22.2178 34.6553 22.1738C34.9717 22.0947 35.4814 21.6201 35.6748 21.2158C35.7979 20.9521 35.8594 20.6621 35.8594 20.293C35.8594 19.291 35.5342 18.8604 34.3389 18.2451C33.2754 17.709 33.1348 17.5947 33.1348 17.2959C33.1348 16.9971 33.2227 16.874 33.5039 16.7686C33.8555 16.6367 34.2422 16.7949 34.3564 17.1201C34.4443 17.375 34.4443 17.375 35.1475 17.375H35.8594V17.0498C35.8594 16.417 35.2178 15.5293 34.6553 15.3887C34.4795 15.3447 34.4531 15.2744 34.4531 14.9492V14.5625H33.75H33.0469V14.9492Z" fill="#FF9F43"/>
<path d="M10.7227 17.5508C10.5469 17.7266 10.5469 17.8408 10.5469 23.8789V30.0312H11.25H11.9531V24.4062V18.7812H19.6875H27.4219V26.1641V33.5469H28.125H28.8281V25.6367C28.8281 17.8408 28.8281 17.7266 28.6523 17.5508C28.4766 17.375 28.3623 17.375 19.6875 17.375C11.0127 17.375 10.8984 17.375 10.7227 17.5508Z" fill="#FF9F43"/>
<path d="M37.2656 18.7812V19.4844H37.9688H38.6719V18.7812V18.0781H37.9688H37.2656V18.7812Z" fill="#FF9F43"/>
<path d="M16.3477 21.0664C16.1807 21.2334 16.1719 21.3564 16.1719 23.8789V26.5156H15.4688H14.7656V27.2188V27.9219H19.6875H24.6094V27.2188V26.5156H23.9062H23.2031V25.2852C23.2031 23.6416 23.2646 23.7031 21.6211 23.7031H20.3906V22.4727C20.3906 20.7852 20.5312 20.8906 18.2812 20.8906C16.6377 20.8906 16.5146 20.8994 16.3477 21.0664ZM18.9844 24.4062V26.5156H18.2812H17.5781V24.4062V22.2969H18.2812H18.9844V24.4062ZM21.7969 25.8125V26.5156H21.0938H20.3906V25.8125V25.1094H21.0938H21.7969V25.8125Z" fill="#FF9F43"/>
<path d="M35.7344 28.4473C34.3369 29.5898 32.2275 30.627 30.5576 31.0049L30.0391 31.1191L30.1006 31.4268C30.2588 32.2881 30.3467 32.5781 30.4346 32.5781C30.6279 32.5781 32.0605 32.165 32.7109 31.9189C34.082 31.4092 35.8926 30.3369 36.9912 29.3965L37.2725 29.1504L36.8066 28.623C36.5518 28.333 36.3057 28.0957 36.2529 28.0957C36.209 28.1045 35.9717 28.2627 35.7344 28.4473Z" fill="#FF9F43"/>
<path d="M14.0625 30.7344V31.4375H14.7656H15.4688V30.7344V30.0312H14.7656H14.0625V30.7344Z" fill="#FF9F43"/>
<path d="M16.875 30.7344V31.4375H21.0938H25.3125V30.7344V30.0312H21.0938H16.875V30.7344Z" fill="#FF9F43"/>
<path d="M1.40625 31.4338V32.137H3.16406H4.92188V36.3557V40.5745H3.16406H1.40625V41.2776V41.9807H3.69141C5.8623 41.9807 5.98535 41.9719 6.15234 41.8049C6.24902 41.7082 6.32812 41.5149 6.32812 41.3655C6.32812 41.2161 6.3457 41.1018 6.36328 41.1018C6.38965 41.1018 7.70801 41.6379 9.29004 42.2971C11.0039 43.009 12.5859 43.6067 13.1836 43.7649C14.168 44.0286 14.2471 44.0373 16.1279 44.0373C17.9561 44.0461 18.1143 44.0286 19.002 43.8088C20.0391 43.5452 31.2715 39.3 31.8867 38.9397C32.291 38.7024 32.7568 38.1223 32.9326 37.6477C32.9854 37.4895 33.0381 37.0676 33.0381 36.7073C33.0469 35.6262 32.5459 34.8 31.5879 34.3254C31.2451 34.1584 31.0166 34.1145 30.498 34.1145C29.8564 34.1145 29.7773 34.1409 27.5098 35.1077C26.2266 35.6614 25.1279 36.1272 25.0752 36.1536C24.9961 36.1887 24.9609 36.0745 24.9609 35.7756C24.9521 34.967 24.416 34.1672 23.625 33.7717L23.168 33.5432H20.2236C18.5977 33.5344 17.0156 33.508 16.6992 33.4641C16.3213 33.4114 15.7764 33.2356 15.1172 32.9455C13.8252 32.3743 12.4893 31.9348 11.2852 31.6887C10.5293 31.5393 9.91406 31.4866 8.33203 31.4514C6.44238 31.4162 6.32812 31.4075 6.32812 31.2493C6.32812 31.1526 6.24902 31.0032 6.15234 30.9065C5.98535 30.7395 5.8623 30.7307 3.69141 30.7307H1.40625V31.4338ZM8.94727 32.928C10.916 33.0598 12.6562 33.4993 14.4141 34.2903C15.873 34.9582 15.8379 34.9495 19.2832 34.9495C21.1201 34.9495 22.5 34.9846 22.6934 35.0373C23.7041 35.3186 23.7041 36.6897 22.6934 36.9709C22.4912 37.0237 20.7773 37.0588 18.2197 37.0588H14.0625V37.762V38.4651H18.6592C21.7354 38.4651 23.3613 38.4299 23.5986 38.3684C23.792 38.3157 25.3916 37.6565 27.1494 36.9094C30.7178 35.3977 30.7002 35.3977 31.2627 35.9602C31.5176 36.2151 31.5527 36.3118 31.5527 36.6985C31.5527 37.5598 31.7373 37.4631 25.2246 39.9416C22.0518 41.1457 19.1162 42.218 18.6943 42.3323C17.71 42.5784 16.3828 42.675 15.3105 42.5871C13.7285 42.4553 13.1748 42.2795 9.30762 40.6623L6.37207 39.4407L6.3457 36.1448L6.32812 32.8401H7.00488C7.38281 32.8401 8.25293 32.884 8.94727 32.928Z" fill="#FF9F43"/>
</svg>
