<svg width="45" height="38" viewBox="0 0 45 38" fill="none" xmlns="http://www.w3.org/2000/svg">
<path d="M35.9989 0.390623C35.7352 0.759764 35.8231 0.944334 36.7899 2.05176C37.3963 2.76367 37.6864 3.15039 37.6249 3.21191C37.3172 3.51953 25.9618 12.2119 25.909 12.1768C25.8739 12.1592 24.7665 10.8672 23.4569 9.31152C22.1473 7.75586 21.0047 6.42871 20.9256 6.36719C20.8465 6.30566 20.6708 6.26172 20.5213 6.2793C20.3368 6.30566 17.8231 8.05469 12.5672 11.834C8.33971 14.8662 4.82408 17.415 4.76256 17.4941C4.48131 17.8545 4.75377 18.3906 5.2108 18.3906C5.38658 18.3906 7.48717 16.9229 12.9188 13.0293C17.0233 10.0762 20.4159 7.66797 20.451 7.66797C20.495 7.66797 21.6463 8.99512 23.0174 10.6123C24.6698 12.5723 25.5751 13.5742 25.7157 13.6094C25.8651 13.6445 26.0321 13.6006 26.2606 13.4424C26.4364 13.3281 29.2577 11.166 32.5184 8.64355C35.7792 6.12988 38.4774 4.07324 38.5126 4.09082C38.5389 4.09961 38.9081 4.5039 39.3299 4.9873C40.2352 6.02441 40.3055 6.08594 40.6044 6.08594C41.0965 6.08594 41.1317 5.9541 41.3163 3.30859L41.4921 0.874022L41.3075 0.689451C41.1493 0.522459 40.9208 0.496092 39.0399 0.355467C36.2098 0.153318 36.1659 0.153318 35.9989 0.390623ZM39.8397 1.56836L40.2528 1.62109L40.244 2.06933C40.2352 2.32422 40.2088 2.87793 40.1737 3.31738L40.121 4.09961L38.9432 2.75488L37.7655 1.41015L38.5917 1.46289C39.0487 1.49804 39.6024 1.54199 39.8397 1.56836Z" fill="white"/>
<path d="M31.8155 11.1764C30.339 11.6246 29.7413 13.3737 30.6466 14.5953C30.8487 14.859 30.8575 14.903 30.7345 15.0348C30.128 15.7028 30.0753 17.0299 30.6202 17.7682L30.8312 18.0582L30.5675 18.4801C30.1017 19.236 30.128 20.2379 30.6378 20.985L30.8487 21.3014L30.6378 21.5826C30.0929 22.3297 30.0929 23.4196 30.6378 24.1666L30.8487 24.4479L30.6378 24.7643C30.128 25.5114 30.1017 26.5133 30.5675 27.2692L30.8312 27.691L30.6202 27.9811C30.0753 28.7194 30.128 30.0465 30.7345 30.7145C30.8575 30.8463 30.8487 30.8903 30.6466 31.1539C30.5323 31.3121 30.3917 31.5758 30.3302 31.7428C30.1192 32.3932 30.2862 33.4039 30.6817 33.8258L30.8575 34.0104L30.5675 34.4762C30.3038 34.9069 30.2775 35.0035 30.2775 35.6627C30.2775 36.3043 30.3038 36.4274 30.5411 36.8141C30.7081 37.0778 30.9718 37.3414 31.2355 37.5084L31.6661 37.7721L36.9923 37.7985C40.8331 37.816 42.4239 37.7985 42.6876 37.7194C43.1622 37.5875 43.7511 37.0865 43.9532 36.6383C44.2784 35.9264 44.1114 34.608 43.6544 34.2301C43.5314 34.1246 43.5489 34.0719 43.795 33.7203C44.0499 33.36 44.0763 33.2457 44.1114 32.5778C44.1378 31.8922 44.1202 31.8131 43.8653 31.3649L43.5929 30.8815L43.8653 30.3717C44.1114 29.9059 44.129 29.8092 44.1026 29.1412C44.0763 28.4996 44.0499 28.3854 43.795 28.025C43.5489 27.6735 43.5314 27.6207 43.6544 27.5153C43.9357 27.2867 44.1202 26.7155 44.1202 26.0826C44.1202 25.4498 43.9357 24.8785 43.6544 24.65C43.5314 24.5446 43.5489 24.4918 43.795 24.1403C44.0675 23.7535 44.0763 23.7008 44.0763 22.8746C44.0763 22.0485 44.0675 21.9957 43.795 21.6178C43.5226 21.2311 43.5226 21.2135 43.6808 21.0729C43.9884 20.7916 44.1466 20.2203 44.1026 19.4996C44.0763 18.9371 44.0323 18.7877 43.8038 18.4625L43.5401 18.0846L43.8038 17.7067C44.0148 17.4078 44.0763 17.2233 44.1026 16.7662C44.1554 16.028 44.0763 15.6764 43.8038 15.2633L43.5753 14.9293L43.8478 14.4283C44.0851 13.9977 44.1202 13.8395 44.1202 13.2858C44.1202 12.5211 43.9181 12.0201 43.4347 11.6246C42.8019 11.0973 42.7491 11.0973 37.1417 11.1061C34.3292 11.1061 31.9386 11.1412 31.8155 11.1764ZM42.4503 12.3717C42.8194 12.5651 42.9776 12.8375 42.9776 13.3033C42.9776 13.8043 42.7491 14.1295 42.2921 14.2614C42.09 14.3141 40.1827 14.3492 37.1505 14.3492C32.0353 14.3492 31.9825 14.3492 31.6134 13.9274C31.2091 13.4791 31.3849 12.653 31.9386 12.3805C32.3429 12.1783 42.0636 12.1696 42.4503 12.3717ZM42.6964 15.7555C43.1183 16.1774 43.1095 16.8365 42.6612 17.2584L42.4327 17.4694L37.2999 17.4957C32.8175 17.5133 32.1319 17.5045 31.9034 17.3815C31.3058 17.0739 31.2091 16.1949 31.7276 15.7291L31.9913 15.4918H37.212H42.4327L42.6964 15.7555ZM42.4415 18.7701C43.1534 19.1305 43.1886 20.2555 42.4855 20.5719C42.3273 20.651 40.8243 20.6774 37.1329 20.6774H31.9913L31.7276 20.4313C31.2267 19.983 31.297 19.1656 31.8507 18.8229C32.1056 18.6647 32.3868 18.6559 37.1769 18.6559C41.0177 18.6559 42.2833 18.6822 42.4415 18.7701ZM42.3976 21.943C42.8019 22.11 42.9776 22.4 42.9776 22.8746C42.9776 23.3492 42.8019 23.6393 42.3976 23.8063C41.9405 23.9996 32.3605 23.9908 31.9562 23.7975C31.3409 23.5074 31.1915 22.7428 31.6398 22.2242C31.7892 22.0572 32.0001 21.899 32.1056 21.8815C32.211 21.8639 34.505 21.8375 37.2032 21.8287C41.2198 21.8199 42.1603 21.8463 42.3976 21.943ZM42.5206 25.1949C42.7755 25.3268 42.9601 25.608 42.9864 25.9069C43.0216 26.3375 42.9601 26.5133 42.6788 26.7946L42.38 27.0934H37.2735C32.8702 27.0934 32.1232 27.0758 31.9034 26.9615C31.3058 26.6539 31.2091 25.775 31.7276 25.3092L31.9913 25.0719H37.1417C41.4044 25.0719 42.3273 25.0895 42.5206 25.1949ZM42.6612 28.4908C43.1095 28.9127 43.1183 29.5719 42.6964 29.9938L42.4327 30.2574H37.212H31.9913L31.7276 30.0114C31.2267 29.5631 31.297 28.7457 31.8507 28.403C32.1144 28.2447 32.3517 28.236 37.2823 28.2535L42.4327 28.2799L42.6612 28.4908ZM42.2921 31.4879C42.7491 31.6197 42.9776 31.9449 42.9776 32.4459C42.9776 32.9117 42.8194 33.1842 42.4503 33.3776C42.0636 33.5797 32.378 33.5709 31.9562 33.3776C31.1651 32.9996 31.2091 31.8922 32.0353 31.5231C32.3692 31.3737 41.7735 31.3473 42.2921 31.4879ZM42.6261 34.8893C43.1271 35.3463 43.1183 36.0231 42.6173 36.4449L42.3448 36.6735H37.256C31.6661 36.6735 31.7892 36.6822 31.5079 36.1461C31.4376 36.0055 31.3761 35.777 31.3761 35.6451C31.3761 35.3287 31.6749 34.8453 31.9298 34.7399C32.0353 34.6959 34.4171 34.6608 37.2384 34.6608L42.3624 34.652L42.6261 34.8893Z" fill="white"/>
<path d="M16.8398 17.5537C16.0049 17.8438 15.5391 18.5117 15.4863 19.4609C15.4424 20.1201 15.5654 20.5596 15.8818 20.9375C16.0928 21.1924 16.0928 21.2012 15.9346 21.4121C15.7852 21.6143 15.7148 21.6318 15.0732 21.6406C13.4385 21.6494 12.085 22.2119 10.9336 23.3545C9.94922 24.3213 9.4834 25.2354 9.18457 26.7559L9.14062 26.9932L5.81836 27.0195C2.15332 27.0459 2.12695 27.0547 1.50293 27.6436C1.08105 28.0479 0.878906 28.5312 0.878906 29.1816C0.878906 29.7705 1.03711 30.2627 1.33594 30.5791C1.50293 30.7637 1.51172 30.79 1.38867 30.9307C1.30957 31.0186 1.16016 31.2646 1.05469 31.4756C0.896484 31.8008 0.870117 31.9766 0.896484 32.5479C0.922852 33.1455 0.958008 33.2773 1.2041 33.6289C1.4502 33.9805 1.46777 34.0332 1.34473 34.1387C1.06348 34.3672 0.878906 34.9385 0.878906 35.5713C0.878906 36.292 1.06348 36.749 1.50293 37.1709C2.10938 37.7422 1.90723 37.7246 7.7959 37.7246H13.1396L13.5967 37.5137C14.7129 36.9863 15.1084 35.4746 14.4229 34.3672C14.1592 33.9453 14.1592 33.9277 14.3086 33.7256C14.4404 33.5498 14.5283 33.5234 15.0996 33.5234C15.6973 33.5234 15.7412 33.541 15.9082 33.7695L16.084 34.0244L15.8027 34.4287C15.5479 34.7891 15.5127 34.9121 15.4775 35.5273C15.46 36.1074 15.4863 36.292 15.6445 36.626C15.873 37.1006 16.4004 37.5752 16.8662 37.707C17.1035 37.7861 18.7207 37.8125 22.4648 37.8125H27.7295L28.1689 37.6016C28.6963 37.3555 28.9336 37.1094 29.1709 36.582C29.5049 35.8613 29.3555 34.7363 28.8545 34.1914C28.7227 34.0508 28.7314 34.0068 28.9424 33.708C29.2588 33.251 29.3555 32.9521 29.3555 32.4688C29.3555 31.9238 29.2412 31.5283 28.9512 31.1152C28.7314 30.8076 28.7227 30.7637 28.8545 30.623C29.4873 29.9199 29.4961 28.4785 28.8633 27.7842C28.749 27.6523 28.7666 27.5908 29.0215 27.1865C29.4961 26.4043 29.4521 25.2969 28.9248 24.6992L28.6699 24.418L28.916 24.1016C29.2236 23.7061 29.3555 23.3105 29.3555 22.748C29.3555 22.2998 29.1182 21.6494 28.8633 21.3682C28.7402 21.2363 28.7578 21.1836 29.0127 20.8232C29.25 20.4805 29.3027 20.3223 29.3379 19.7598C29.373 19.1709 29.3555 19.0479 29.1445 18.6084C28.8721 18.0723 28.5205 17.7559 27.958 17.5537C27.4131 17.3691 17.376 17.3604 16.8398 17.5537ZM27.6855 18.6963C28.0107 18.8633 28.2129 19.2412 28.2129 19.6719C28.2129 20.1201 27.7734 20.5508 27.2373 20.6299C27.0264 20.6562 24.6973 20.6738 22.0605 20.6562C17.6572 20.6299 17.2529 20.6211 17.042 20.4717C16.7607 20.2871 16.6113 19.9707 16.6113 19.5664C16.6113 19.1621 16.7344 18.9424 17.0771 18.7402C17.3496 18.5732 17.5605 18.5645 22.3945 18.5645C26.7275 18.5645 27.4658 18.582 27.6855 18.6963ZM27.5098 21.8428C27.8525 21.9658 28.2129 22.4316 28.2129 22.7744C28.2129 23.1084 28.0283 23.4072 27.6943 23.6357L27.3955 23.8379H23.6074H19.8193L19.2129 23.2666C18.7998 22.8799 18.3516 22.5635 17.8242 22.2998L17.042 21.9131L17.332 21.8252C17.7803 21.7021 27.1318 21.7109 27.5098 21.8428ZM16.1016 22.8799C17.4463 23.1611 18.7646 24.1807 19.3711 25.4199C19.9951 26.6943 20.083 27.8721 19.6436 29.1377C19.3711 29.9199 19.002 30.4912 18.3428 31.1064C16.4619 32.8643 13.5615 32.8115 11.7334 30.9922C9.81738 29.0762 9.80859 26.123 11.7246 24.2334C12.709 23.2578 13.7549 22.8096 15.0469 22.792C15.3721 22.7832 15.8467 22.8271 16.1016 22.8799ZM27.6855 25.1211C28.1689 25.4111 28.3359 25.9736 28.0811 26.4746C27.8174 26.9932 27.7383 27.002 24.2314 27.002H21.0322L20.9707 26.5537C20.9355 26.3076 20.8213 25.8594 20.707 25.543L20.4961 24.9805H23.9678C27.0264 24.9805 27.4658 24.998 27.6855 25.1211ZM9.17578 28.3379C9.34277 29.1553 9.44824 29.5596 9.58887 29.876L9.74707 30.2539H6.31934C3.42773 30.2539 2.83887 30.2363 2.60156 30.1221C2.03906 29.8584 1.8457 29.0938 2.21484 28.6279C2.5752 28.1621 2.68945 28.1533 6.03809 28.1445H9.14062L9.17578 28.3379ZM27.5098 28.2588C27.8525 28.3818 28.2129 28.8477 28.2129 29.1904C28.2129 29.5244 28.0283 29.8232 27.6943 30.0518C27.3955 30.2539 27.3955 30.2539 23.9238 30.2539C20.6631 30.2539 20.4609 30.2451 20.5225 30.0957C20.7598 29.5244 20.9355 28.9355 20.9795 28.5664L21.0322 28.1445L24.1172 28.1533C26.2705 28.1533 27.2988 28.1885 27.5098 28.2588ZM10.8984 31.8008C11.3467 32.2666 12.2783 32.8994 12.7705 33.0752C13.1396 33.207 13.1836 33.3037 12.9023 33.374C12.7881 33.4004 10.415 33.4092 7.62012 33.4004L2.53125 33.374L2.27637 33.084C2.08301 32.873 2.02148 32.7148 2.02148 32.4424C2.02148 31.9941 2.13574 31.7832 2.4873 31.5723C2.75098 31.4053 2.96191 31.3965 6.63574 31.3965H10.5117L10.8984 31.8008ZM27.6855 31.5371C28.1689 31.8271 28.3359 32.3896 28.0811 32.8906C27.7998 33.4268 27.9229 33.418 22.3945 33.4092C19.626 33.4092 17.2881 33.374 17.2002 33.3389C17.0684 33.2949 17.2002 33.1982 17.7803 32.9082C18.2725 32.6621 18.7207 32.3545 19.125 31.9766L19.7314 31.4053L23.5811 31.3965C27 31.3965 27.4658 31.4141 27.6855 31.5371ZM13.0957 34.6924C13.5703 34.9385 13.7549 35.5537 13.4912 36.0547C13.21 36.6084 13.4736 36.582 7.81348 36.582H2.6543L2.38184 36.3535C1.88086 35.9316 1.87207 35.2549 2.37305 34.7979L2.63672 34.5605H7.74316C12.1289 34.5605 12.876 34.5781 13.0957 34.6924ZM27.9141 34.9473C28.1689 35.2021 28.2129 35.3076 28.2129 35.6504C28.2129 35.9668 28.1602 36.1074 27.958 36.3359L27.7031 36.626L22.4561 36.6523L17.209 36.6699L16.9102 36.3711C16.6553 36.1162 16.6113 36.0107 16.6113 35.6592C16.6113 35.3076 16.6553 35.2021 16.9102 34.9473L17.209 34.6484H22.4121H27.6152L27.9141 34.9473Z" fill="white"/>
<path d="M14.6434 23.3301C14.5643 23.4355 14.5028 23.6289 14.5028 23.752C14.5028 23.9277 14.4061 24.0244 14.0633 24.2178C13.536 24.499 13.1317 25.0791 13.0438 25.6504C12.868 26.8545 13.5711 27.8564 14.7401 28.0762C15.5311 28.2168 15.8124 28.3662 15.9618 28.7266C16.0672 28.9727 16.076 29.1045 15.9969 29.3418C15.6805 30.291 14.3358 30.168 14.1776 29.1836C14.0809 28.5508 13.5711 28.2871 13.1844 28.6738C12.6922 29.166 13.3514 30.6689 14.1952 30.9766C14.4588 31.0645 14.5028 31.1172 14.5028 31.3721C14.5028 31.7061 14.828 32.1016 15.0917 32.1016C15.4168 32.1016 15.6454 31.8467 15.6454 31.4863C15.6454 31.1787 15.6717 31.1348 16.0409 30.959C16.867 30.5635 17.3417 29.5879 17.1571 28.6826C16.9549 27.7422 16.2958 27.1445 15.3026 27.0039C15.0213 26.9688 14.7049 26.8896 14.5995 26.8369C14.3885 26.7227 14.1512 26.3008 14.1512 26.0371C14.1512 25.5713 14.6522 25.0703 15.118 25.0703C15.5751 25.0703 16.0848 25.624 16.0848 26.1074C16.0848 26.3799 16.3221 26.5645 16.6561 26.5645C17.7196 26.5645 17.078 24.499 15.8915 24.0859C15.6981 24.0156 15.6454 23.9453 15.6454 23.7344C15.6454 23.2949 15.5047 23.1367 15.118 23.1367C14.8631 23.1367 14.7401 23.1895 14.6434 23.3301Z" fill="white"/>
</svg>
